<?xml version="1.0" encoding="utf-8"?>
<!-- Generator: Adobe Illustrator 16.0.4, SVG Export Plug-In . SVG Version: 6.00 Build 0)  -->
<!DOCTYPE svg PUBLIC "-//W3C//DTD SVG 1.1//EN" "http://www.w3.org/Graphics/SVG/1.1/DTD/svg11.dtd">
<svg version="1.1"
	 id="svg2994" xmlns:dc="http://purl.org/dc/elements/1.1/" xmlns:cc="http://creativecommons.org/ns#" xmlns:rdf="http://www.w3.org/1999/02/22-rdf-syntax-ns#" xmlns:svg="http://www.w3.org/2000/svg" xmlns:sodipodi="http://sodipodi.sourceforge.net/DTD/sodipodi-0.dtd" xmlns:inkscape="http://www.inkscape.org/namespaces/inkscape" sodipodi:docname="iconmonstr-share-3-icon.svg" inkscape:version="0.48.4 r9939"
	 xmlns="http://www.w3.org/2000/svg" xmlns:xlink="http://www.w3.org/1999/xlink" x="0px" y="0px" width="512px" height="512px"
	 viewBox="0 0 512 512" enable-background="new 0 0 512 512" xml:space="preserve">
<sodipodi:namedview  inkscape:cy="256" inkscape:cx="256" inkscape:zoom="1.0117188" showgrid="false" guidetolerance="10" gridtolerance="10" objecttolerance="10" bordercolor="transparent" pagecolor="transparent" borderopacity="0" id="namedview2997" inkscape:current-layer="svg2994" inkscape:window-maximized="1" inkscape:window-y="-8" inkscape:window-x="-8" inkscape:window-height="705" inkscape:pageshadow="2" inkscape:window-width="1366" inkscape:pageopacity="0">
	</sodipodi:namedview>
<path id="share-3-icon" fill="#23A6F3" d="M387.363,226.336l-34.424,64.066l-8.716-21.373
	c-46.053,23.945-59.761,59.884-62.55,116.004h-46.513c3.351-71.322,22.619-125.08,91.453-159.185l-8.806-21.595L387.363,226.336z
	 M234.586,231.02c8.664,6.9,16.391,14.407,23.24,22.546c6.85-8.141,14.588-15.646,23.254-22.548v-55.807l23.271,0.016L258.369,118
	l-47.056,57.162l23.272,0.016V231.02L234.586,231.02z M238.65,282.291c2.168-4.172,4.498-8.213,6.991-12.129
	c-13.498-17.248-31.84-32.051-56.59-44.315l8.807-21.595l-70.221,21.419l35.088,64.73l8.716-21.373
	c26.737,13.902,42.57,31.848,51.695,55.438C226.933,308.851,232.064,294.957,238.65,282.291z"/>
</svg>
